# xmcd
#
# Track frame offsets:
#	150
#	9897
#	19409
#	29631
#	37978
#	53119
#	66250
#	77665
#	89691
#	103809
#	131390
#
# Disc length: 2010 seconds
#
# Revision: 0
# Processed by: cddbd v1.4PL0 Copyright (c) Steve Scherf et al.
# Submitted via: dBpowerAMP V4.0
#
DISCID=8b07d80b
DTITLE=Anne Murray - Anne Murray
DYEAR=1900
DGENRE=Country
TTITLE0=It's All Over
TTITLE1=Some Birds
TTITLE2=For Baby
TTITLE3=Paths Of Victory
TTITLE4=From Both Sides Now
TTITLE5=Buffalo In The Park
TTITLE6=Last Thing On My Mind
TTITLE7=All The Time
TTITLE8=David's Song
TTITLE9=There Goes My Everything
TTITLE10=DATA
EXTD=
EXTT0=
EXTT1=
EXTT2=
EXTT3=
EXTT4=
EXTT5=
EXTT6=
EXTT7=
EXTT8=
EXTT9=
EXTT10=
PLAYORDER=
